<?xml version="1.0" encoding="UTF-8" standalone="no"?>
<!-- Created with Inkscape (http://www.inkscape.org/) -->

<svg
   xmlns:dc="http://purl.org/dc/elements/1.1/"
   xmlns:cc="http://creativecommons.org/ns#"
   xmlns:rdf="http://www.w3.org/1999/02/22-rdf-syntax-ns#"
   xmlns:svg="http://www.w3.org/2000/svg"
   xmlns="http://www.w3.org/2000/svg"
   xmlns:sodipodi="http://sodipodi.sourceforge.net/DTD/sodipodi-0.dtd"
   xmlns:inkscape="http://www.inkscape.org/namespaces/inkscape"
   width="210mm"
   height="210mm"
   viewBox="0 0 210 210"
   version="1.1"
   id="svg8"
   sodipodi:docname="disegno.svg"
   inkscape:version="0.92.4 (5da689c313, 2019-01-14)">
  <defs
     id="defs2">
    <circle
       r="261"
       cy="405"
       cx="382"
       id="SVGID_1_" />
    <circle
       r="256"
       cy="405"
       cx="382"
       id="SVGID_3_" />
    <circle
       r="236"
       cy="405"
       cx="382"
       id="SVGID_5_" />
    <path
       d="m 453,9 -79,-2 66,8 -48,8 c 5,8 -4,8 10,3 -3,6 10,3 5,1 v 148 8"
       id="SVGID_7_"
       inkscape:connector-curvature="0" />
    <circle
       r="261"
       cy="405"
       cx="382"
       id="SVGID_1_-9" />
    <circle
       r="256"
       cy="405"
       cx="382"
       id="SVGID_3_-5" />
    <circle
       r="236"
       cy="405"
       cx="382"
       id="SVGID_5_-4" />
    <path
       d="m 453,9 -79,-2 66,8 -48,8 c 5,8 -4,8 10,3 -3,6 10,3 5,1 v 148 8"
       id="SVGID_7_-3"
       inkscape:connector-curvature="0" />
    <clipPath
       id="clipPath4882"
       clipPathUnits="userSpaceOnUse">
      <path
         inkscape:connector-curvature="0"
         id="path4880"
         d="m 120.084,274.605 c 0,-144.643 117.257,-261.9 261.9,-261.9 v 0 c 144.644,0 261.9,117.257 261.9,261.9 v 0 c 0,144.644 -117.256,261.9 -261.9,261.9 v 0 c -144.643,0 -261.9,-117.256 -261.9,-261.9" />
    </clipPath>
    <clipPath
       id="clipPath4892"
       clipPathUnits="userSpaceOnUse">
      <path
         inkscape:connector-curvature="0"
         id="path4890"
         d="m 125.185,274.605 c 0,-141.826 114.973,-256.8 256.799,-256.8 v 0 c 141.828,0 256.8,114.974 256.8,256.8 v 0 c 0,141.827 -114.972,256.8 -256.8,256.8 v 0 c -141.826,0 -256.799,-114.973 -256.799,-256.8" />
    </clipPath>
    <clipPath
       id="clipPath4902"
       clipPathUnits="userSpaceOnUse">
      <path
         inkscape:connector-curvature="0"
         id="path4900"
         d="m 145.785,274.605 c 0,-130.449 105.75,-236.199 236.199,-236.199 v 0 c 130.45,0 236.201,105.75 236.201,236.199 v 0 c 0,130.45 -105.751,236.2 -236.201,236.2 v 0 c -130.449,0 -236.199,-105.75 -236.199,-236.2" />
    </clipPath>
    <clipPath
       id="clipPath4912"
       clipPathUnits="userSpaceOnUse">
      <path
         inkscape:connector-curvature="0"
         id="path4910"
         d="m 520.685,354.105 -66.801,-48.8 v -61.5 l 66.801,-48.699 c 4.8,-3.601 10.3,-4.801 10.3,5.099 v 0 148.8 c 0,5.379 -1.72,7.891 -4.404,7.891 v 0 c -1.657,0 -3.682,-0.959 -5.896,-2.791 m -122.701,2.7 H 236.185 c -4.601,0 -8.301,-3.7 -8.301,-8.2 v 0 -111 c 0.1,-25.1 20.601,-45.3 45.601,-45.199 v 0 h 161.799 c 4.601,0 8.301,3.699 8.301,8.199 v 0 111 c -0.1,25.037 -20.499,45.2 -45.414,45.2 v 0 c -0.063,0 -0.124,0 -0.187,0" />
    </clipPath>
    <clipPath
       id="clipPath4922"
       clipPathUnits="userSpaceOnUse">
      <path
         inkscape:connector-curvature="0"
         id="path4920"
         d="M 0,680 H 680 V 0 H 0 Z" />
    </clipPath>
  </defs>
  <sodipodi:namedview
     id="base"
     pagecolor="#ffffff"
     bordercolor="#666666"
     borderopacity="1.0"
     inkscape:pageopacity="0.0"
     inkscape:pageshadow="2"
     inkscape:zoom="0.35"
     inkscape:cx="316.83186"
     inkscape:cy="560"
     inkscape:document-units="mm"
     inkscape:current-layer="g4874"
     showgrid="false"
     inkscape:window-width="1366"
     inkscape:window-height="705"
     inkscape:window-x="-8"
     inkscape:window-y="-8"
     inkscape:window-maximized="1" />
  <metadata
     id="metadata5">
    <rdf:RDF>
      <cc:Work
         rdf:about="">
        <dc:format>image/svg+xml</dc:format>
        <dc:type
           rdf:resource="http://purl.org/dc/dcmitype/StillImage" />
        <dc:title></dc:title>
      </cc:Work>
    </rdf:RDF>
  </metadata>
  <g
     inkscape:label="Livello 1"
     inkscape:groupmode="layer"
     id="layer1"
     transform="translate(0,-87)">
    <g
       transform="matrix(0.35277777,0,0,-0.35277777,-16.400512,271.86741)"
       inkscape:label="zoomoodle-logo"
       id="g4874">
      <g
         id="g4876"
         transform="matrix(0.90511936,0,0,0.90511936,33.234985,-77.223109)">
        <g
           clip-path="url(#clipPath4882)"
           id="g4878">
          <path
             inkscape:connector-curvature="0"
             id="path4884"
             style="fill:#e5e5e4;fill-opacity:1;fill-rule:nonzero;stroke:none"
             d="m 107.185,549.405 h 549.5 v -549.5 h -549.5 z" />
        </g>
      </g>
      <g
         id="g4886"
         transform="matrix(0.90511936,0,0,0.90511936,33.234985,-77.223109)">
        <g
           clip-path="url(#clipPath4892)"
           id="g4888">
          <path
             inkscape:connector-curvature="0"
             id="path4894"
             style="fill:#ffffff;fill-opacity:1;fill-rule:nonzero;stroke:none"
             d="m 112.385,544.205 h 539.3 V 4.905 h -539.3 z" />
        </g>
      </g>
      <g
         id="g4896"
         transform="matrix(0.90511936,0,0,0.90511936,33.234985,-77.223109)">
        <g
           clip-path="url(#clipPath4902)"
           id="g4898">
          <path
             inkscape:connector-curvature="0"
             id="path4904"
             style="fill:#4a8cff;fill-opacity:1;fill-rule:nonzero;stroke:none"
             d="m 132.885,523.705 h 498.2 v -498.2 h -498.2 z" />
        </g>
      </g>
      <g
         id="g4906"
         transform="matrix(0.90511936,0,0,0.90511936,33.234985,-77.223109)">
        <g
           clip-path="url(#clipPath4912)"
           id="g4908">
          <path
             inkscape:connector-curvature="0"
             id="path4914"
             style="fill:#ffffff;fill-opacity:1;fill-rule:nonzero;stroke:none"
             d="m 215.085,369.605 h 328.7 v -190 h -328.7 z" />
        </g>
      </g>
      <g
         id="g4916"
         transform="matrix(0.90511936,0,0,0.90511936,33.234985,-77.223109)">
        <g
           clip-path="url(#clipPath4922)"
           id="g4918">
          <g
             transform="translate(398.0413,570.7028)"
             id="g4924">
            <path
               inkscape:connector-curvature="0"
               id="path4926"
               style="fill:#333333;fill-opacity:1;fill-rule:nonzero;stroke:none"
               d="m 0,0 114.012,83.312 -1.458,5.082 C -93.184,63.171 -186.743,45.301 -363.946,-57.422 l 1.645,-4.665 14.08,-0.146 c -1.291,-14.184 -3.541,-49.237 -0.666,-101.953 -19.662,-56.901 -0.5,-95.558 17.495,-137.609 2.853,43.738 2.562,91.642 -10.872,139.317 -2.812,52.361 -0.5,86.79 0.77,100.182 l 117.47,-1.124 c -0.316,-23.004 0.846,-46.003 3.478,-68.857 104.972,-36.887 210.548,0.125 266.596,91.059 C 30.492,-23.785 0,0 0,0" />
          </g>
        </g>
      </g>
    </g>
  </g>
  <style
     id="style4634"
     type="text/css">
	.st0{clip-path:url(#SVGID_2_);}
	.st1{fill:#E5E5E4;}
	.st2{clip-path:url(#SVGID_4_);}
	.st3{fill:#FFFFFF;}
	.st4{clip-path:url(#SVGID_6_);}
	.st5{fill:#4A8CFF;}
	.st6{clip-path:url(#SVGID_8_);}
	.st7{fill:#333333;}
</style>
  <style
     id="style4750"
     type="text/css">
	.st0{clip-path:url(#SVGID_2_);}
	.st1{fill:#E5E5E4;}
	.st2{clip-path:url(#SVGID_4_);}
	.st3{fill:#FFFFFF;}
	.st4{clip-path:url(#SVGID_6_);}
	.st5{fill:#4A8CFF;}
	.st6{clip-path:url(#SVGID_8_);}
	.st7{fill:#333333;}
</style>
</svg>
